<svg xmlns="http://www.w3.org/2000/svg" width="248" height="133" viewBox="0 0 248 133">
  <g id="Group_413" data-name="Group 413" transform="translate(-82 -322)">
    <text id="The_information_s_been_copied_to_your_clipboard_" data-name="The information&apos;s been
copied to your clipboard!" transform="translate(206 423)" fill="#635e54" font-size="22" font-family="ProximaNova-Bold, Proxima Nova" font-weight="700"><tspan x="-114.279" y="0">The information&apos;s been</tspan><tspan x="-123.761" y="27">copied to your clipboard!</tspan></text>
    <g id="sandwich-svgrepo-com" transform="translate(158 244.997)">
      <path id="Path_470" data-name="Path 470" d="M97.091,205.017h-.48V192.233H10.873v12.784h-.481a2.792,2.792,0,1,0,0,5.584c7.222,0,7.222,3.467,14.443,3.467s7.222-3.467,14.444-3.467,7.222,3.467,14.444,3.467h.036c7.222,0,7.222-3.467,14.444-3.467s7.222,3.467,14.444,3.467,7.221-3.467,14.443-3.467a2.792,2.792,0,1,0,0-5.584Z" transform="translate(-6.188 -93.825)" fill="#e0a03d"/>
      <path id="Path_471" data-name="Path 471" d="M22.066,261.056H10.392a2.792,2.792,0,1,0,0,5.584c7.222,0,7.222,3.467,14.443,3.467s7.222-3.467,14.444-3.467,7.222,3.467,14.444,3.467h.036c7.222,0,7.222-3.467,14.444-3.467s7.222,3.467,14.444,3.467,7.221-3.467,14.443-3.467a2.792,2.792,0,1,0,0-5.584H26.244" transform="translate(-6.188 -149.864)" fill="#60a771"/>
      <path id="Path_472" data-name="Path 472" d="M96.693,291.124c-6.822.126-6.961,3.461-14.046,3.461-7.222,0-7.222-3.467-14.444-3.467s-7.222,3.467-14.444,3.467h-.036c-7.222,0-7.222-3.467-14.444-3.467s-7.222,3.467-14.444,3.467c-7.085,0-7.224-3.334-14.045-3.461a4.022,4.022,0,0,0,.832,7.957H95.861a4.022,4.022,0,0,0,.832-7.957Z" transform="translate(-6.188 -174.342)" fill="#b7364a"/>
      <path id="Path_473" data-name="Path 473" d="M25.218,333.985v4.567h5.306l20.111,7.032,20.11-7.032h40.211v-4.567Z" transform="translate(-20.534 -209.246)" fill="#f6e088"/>
      <path id="Path_474" data-name="Path 474" d="M50.634,365.6l-20.111-7.032H25.218v12.784h85.738V358.573H70.745Z" transform="translate(-20.534 -229.267)" fill="#e0a03d"/>
      <circle id="Ellipse_247" data-name="Ellipse 247" cx="4.868" cy="4.868" r="4.868" transform="translate(42.686 78.415)" fill="#60a771"/>
      <path id="Path_475" data-name="Path 475" d="M95.107,113.984c0-.114-.006-.226-.015-.338,0-.017,0-.035,0-.053-.01-.106-.024-.211-.041-.314l-.011-.06c-.019-.1-.041-.207-.068-.308,0-.013-.008-.026-.011-.039-.027-.1-.058-.2-.092-.293,0-.009-.006-.018-.009-.028-.036-.1-.076-.194-.119-.289l-.024-.052q-.065-.138-.138-.27l-.028-.048c-.052-.09-.106-.178-.164-.264l-.012-.017c-.057-.083-.117-.164-.18-.243l-.028-.035c-.064-.078-.131-.154-.2-.227l-.041-.043c-.07-.072-.142-.142-.217-.209l-.037-.032c-.077-.067-.156-.132-.238-.194l-.01-.008c-.083-.062-.17-.121-.258-.178l-.045-.029c-.086-.053-.173-.1-.263-.151l-.051-.026c-.092-.047-.186-.091-.282-.131l-.03-.012q-.142-.058-.288-.106l-.032-.011c-.1-.032-.2-.059-.305-.083l-.03-.008V97H48.965V89.4a6.28,6.28,0,1,0-2.823,0V97H3.273v12.888l-.033.009c-.1.024-.2.051-.3.082l-.035.012c-.1.031-.192.067-.285.1l-.033.013c-.1.04-.189.084-.28.131l-.052.027q-.134.07-.262.15l-.046.029c-.088.056-.174.115-.258.178l-.009.007c-.082.062-.161.127-.239.2l-.036.031q-.113.1-.218.21l-.04.042c-.069.074-.137.15-.2.228l-.027.034c-.063.079-.124.16-.182.244l-.012.016c-.059.086-.113.175-.165.265l-.027.047q-.074.133-.139.271l-.023.051c-.043.1-.083.192-.119.29,0,.009-.006.018-.009.027q-.052.145-.092.294l-.011.038c-.027.1-.049.2-.068.308l-.011.059q-.026.155-.041.314c0,.017,0,.035,0,.053-.009.112-.014.224-.014.338a4.194,4.194,0,0,0,1.39,3.12,5.417,5.417,0,0,0,1.883,8.6v17.8H91.834V125.7a5.417,5.417,0,0,0,1.883-8.6A4.193,4.193,0,0,0,95.107,113.984ZM44.1,83.284a3.457,3.457,0,1,1,3.457,3.457A3.461,3.461,0,0,1,44.1,83.284ZM23.473,99.819l-4.594,4.594,2,2,6.591-6.591H39.589l-4.594,4.594,2,2,6.591-6.591H55.7l-4.594,4.594,2,2L59.7,99.819H71.821l-4.594,4.594,2,2,6.591-6.591h13.2v9.961H20.055V112.6H90.9a1.38,1.38,0,1,1,0,2.761,15.9,15.9,0,0,0-7.833,1.872,14.5,14.5,0,0,1-13.221,0,15.892,15.892,0,0,0-7.833-1.872,15.893,15.893,0,0,0-7.833,1.872c-.427.2-.848.407-1.29.595a12.676,12.676,0,0,1-5.316,1H47.42a12.606,12.606,0,0,1-5.207-1c-.442-.187-.862-.389-1.289-.594a15.9,15.9,0,0,0-7.833-1.872,15.892,15.892,0,0,0-7.833,1.872,13.141,13.141,0,0,1-6.611,1.594,13.135,13.135,0,0,1-6.61-1.594A15.9,15.9,0,0,0,4.2,115.364a1.38,1.38,0,1,1,0-2.761H15.878v-2.823H6.1V99.819H23.473Zm65.538,40.859H6.1v-9.961H9.75l20.35,7.116,20.35-7.116H89.01v9.961ZM49.971,127.894,30.1,134.842,10.23,127.894H6.1V126.15H89.011v1.744Zm39.7-4.567H5.434A2.61,2.61,0,0,1,4.75,118.2a13.043,13.043,0,0,1,6.063,1.586,15.834,15.834,0,0,0,7.445,1.867c.128,0,.257,0,.389,0,.492,0,.954-.016,1.391-.044s.847-.071,1.235-.125c.291-.04.569-.087.836-.138a16.829,16.829,0,0,0,4.372-1.565,13.422,13.422,0,0,1,4.43-1.46,16.457,16.457,0,0,1,2.181-.134,13.14,13.14,0,0,1,6.612,1.594,15.894,15.894,0,0,0,7.833,1.872h.036a15.893,15.893,0,0,0,7.833-1.872,13.142,13.142,0,0,1,6.611-1.594,13.138,13.138,0,0,1,6.611,1.594,15.893,15.893,0,0,0,7.833,1.872c.138,0,.274,0,.408,0a15.836,15.836,0,0,0,7.426-1.867,13.046,13.046,0,0,1,6.063-1.586,2.61,2.61,0,0,1-.683,5.129Z" transform="translate(0 0)" fill="#452a02"/>
    </g>
  </g>
</svg>
