<svg xmlns="http://www.w3.org/2000/svg" width="204" height="137.506" viewBox="0 0 204 137.506">
  <g id="Group_417" data-name="Group 417" transform="translate(5118 -11623.494)">
    <g id="Group_414" data-name="Group 414" transform="translate(-5222 11306)">
      <text id="We_couldn_t_find_any_places_for_you_" data-name="We couldn&apos;t find any
places for you!" transform="translate(206 423)" fill="#635e54" font-size="22" font-family="ProximaNova-Bold, Proxima Nova" font-weight="700"><tspan x="-101.189" y="0">We couldn&apos;t find any</tspan><tspan x="-72.655" y="27">places for you!</tspan></text>
    </g>
    <circle id="Ellipse_289" data-name="Ellipse 289" cx="35.659" cy="35.659" r="35.659" transform="translate(-5051.501 11623.494)" fill="#e0a03d"/>
    <path id="Path_817" data-name="Path 817" d="M444.531,536.872c0,5.629-9.044-9.952-18.531-9.952s-18.89,15.369-18.89,9.74c0-3.21,3.059-7.674,7.446-10.916h0A19.819,19.819,0,0,1,426,521.55a19.174,19.174,0,0,1,11.578,4.5C441.714,529.324,444.531,533.731,444.531,536.872Z" transform="translate(-5441.662 11142.524)" fill="#444053"/>
    <path id="Path_818" data-name="Path 818" d="M395.5,441.591a15.555,15.555,0,0,0,5.9-1.436,2.3,2.3,0,0,1,1.072-.316c.645-.018,1.387.251.912,1.758-.77,2.466-5.24,5.24-8.014,5.086a9.193,9.193,0,0,1-7.922-5,2.312,2.312,0,0,1-.285-1.189c.024-.763.3-1.719,1.734-.653,1.935,1.439,5.606,1.712,6.342,1.752A2.454,2.454,0,0,0,395.5,441.591Z" transform="translate(-5424.018 11212.887)" fill="#444053"/>
    <path id="Path_819" data-name="Path 819" d="M617.5,441.591a15.555,15.555,0,0,0,5.9-1.436,2.3,2.3,0,0,1,1.071-.316c.645-.018,1.387.251.912,1.758-.77,2.466-5.24,5.24-8.014,5.086a9.193,9.193,0,0,1-7.922-5,2.311,2.311,0,0,1-.285-1.189c.024-.763.3-1.719,1.734-.653,1.935,1.439,5.606,1.712,6.342,1.752a2.454,2.454,0,0,0,.261,0Z" transform="translate(-5620.357 11212.887)" fill="#444053"/>
  </g>
</svg>
