<?xml version="1.0" encoding="utf-8"?>
<!-- Generator: Adobe Illustrator 24.3.0, SVG Export Plug-In . SVG Version: 6.00 Build 0)  -->
<svg version="1.1" id="Layer_1" xmlns="http://www.w3.org/2000/svg" xmlns:xlink="http://www.w3.org/1999/xlink" x="0px" y="0px"
	 viewBox="0 0 906 765" style="enable-background:new 0 0 906 765;" xml:space="preserve">
<style type="text/css">
	.st0{enable-background:new    ;}
	.st1{fill:#FFA011;}
	.st2{fill:#E0A03D;}
	.st3{fill:#60A771;}
	.st4{fill:#B7364A;}
	.st5{fill:#F6E088;}
	.st6{fill:#452A02;}
</style>
<g transform="translate(748 16131.008)">
	<g class="st0">
		<path class="st1" d="M-745.9-15447c7.5-0.4,12.7-1.4,15.8-3c3-1.6,5.1-4.6,6.2-9.1c1.1-4.5,1.6-12.1,1.6-22.7v-95.9h-17.1
			l33.6-42.8c9.8-12.4,17.8-21.6,23.9-27.7c6.1-6.1,11.8-10.3,17.1-12.5c5.3-2.3,11.6-3.4,18.9-3.4c9.6,0,18.4,1.7,26.4,5
			c8,3.3,14.3,7.9,18.9,13.6c4.6,5.7,6.9,11.9,6.9,18.6c0,4.1-1,7.9-3,11.2c-2,3.3-4.7,6-8.3,8c-3.5,2-7.5,2.9-11.8,2.9
			c-4.9,0-9.4-1.2-13.4-3.5c-4-2.4-7-5.5-9-9.4c-1-2.2-1.7-4.7-2.1-7.5c-0.4-2.8-0.8-7.3-1.2-13.4c-0.2-4.9-0.5-8.5-0.9-10.6
			c-0.4-2.2-1.1-4-2.1-5.6c-1-1.6-2.2-2.8-3.7-3.7c-1.5-0.9-3-1.3-4.6-1.3c-2.2,0-4.3,0.7-6.5,2.2c-2.2,1.5-4,3.4-5.6,5.8
			c-1.6,2.6-2.7,5.4-3.4,8.6c-0.7,3.1-1,7.4-1,12.7v39.2h32.5l-8,13.9h-24.5v95.9c0,11,0.6,18.8,1.8,23.3c1.2,4.5,3.5,7.5,7.1,9
			c3.5,1.5,9.5,2.3,18,2.5v3h-102.7V-15447z"/>
		<path class="st1" d="M-589.4-15450c-11.9-6.6-21.2-15.7-28-27.3c-6.8-11.6-10.2-24.4-10.2-38.3c0-14.6,3.5-27.9,10.6-40.1
			c7.1-12.2,16.8-21.8,29.1-28.9c12.3-7.1,25.8-10.6,40.6-10.6c12.2,0,23.5,2.6,34.1,7.7c10.5,5.1,19.1,12.3,25.8,21.5
			c3.5,4.9,6.2,9.9,8.1,14.9c1.9,5,3.3,11.5,4.3,19.3h-97.6c0.2,18.5,4.4,32.3,12.5,41.3c8.2,9,20.4,13.6,36.7,13.6
			c10.4,0,19.3-2,26.7-6c7.4-4,14.1-10.6,20.2-19.6l2.7,1.2c-3.1,8.5-6.1,15.2-9,20.4c-2.9,5.1-6.3,10.2-10.5,15.3
			c-6.9,8.3-15.1,14.6-24.8,19c-9.6,4.4-20.2,6.6-31.6,6.6C-564.3-15440.2-577.5-15443.5-589.4-15450z M-527.6-15535.5
			c0-9.6-0.1-17.2-0.4-22.6c-0.3-5.4-0.8-10.2-1.6-14.3c-1.6-6.7-3.8-11.6-6.6-14.6c-2.9-3-6.7-4.6-11.7-4.6
			c-8.1,0-14.3,4.9-18.6,14.6c-4.3,9.7-6.5,23.6-6.5,41.4H-527.6z"/>
		<path class="st1" d="M-440-15444.3c-6.3-2.8-11.2-6.6-14.8-11.5c-3.5-4.9-5.3-10.5-5.3-16.8c0-5.9,1.3-11.1,4-15.5
			c2.7-4.4,7.1-8.7,13.3-12.7c6.2-4,14.8-8.3,25.8-12.8c13.4-5.9,30.7-11.9,51.9-18v-15.3c0-10-0.3-17.6-0.9-22.6
			c-0.6-5-1.7-8.7-3.2-11.1c-3.1-4.7-7.6-7.1-13.3-7.1c-4.3,0-8.3,1-11.9,3.1c-3.6,2.1-6.3,5-8.1,8.7c-1.4,2.6-2.3,5.1-2.8,7.7
			c-0.5,2.6-1.3,8.6-2.5,18c-1.2,9.2-4.6,16.6-10.2,22.1c-5.6,5.5-12.6,8.3-21.1,8.3c-6.1,0-11.1-1.9-14.9-5.8s-5.8-8.8-5.8-14.9
			c0-6.3,2.2-12.1,6.6-17.6c4.4-5.4,11.2-10.6,20.2-15.5c11.2-6.3,24.5-11.5,40-15.6c15.4-4.1,29.4-6.2,41.7-6.2
			c5.9,0,11,0.6,15.3,1.9c4.3,1.3,8.2,3.4,11.5,6.3c4.3,3.3,7.3,7.5,9,12.4c1.7,4.9,2.5,11.6,2.5,20.1v67.8c0,5.7,0.1,9.8,0.4,12.2
			c0.3,2.5,0.8,4.6,1.6,6.3c0.8,2,2.2,3.5,4.1,4.6c2,1.1,4.2,1.6,6.8,1.6c1.8,0,3.5-0.2,5.2-0.7c1.7-0.5,3.9-1.5,6.6-3.1l1.8,2.1
			c-10.2,8.5-19.1,14.5-26.7,18.1c-7.6,3.6-15,5.5-22.3,5.5c-8.3,0-14.8-2.3-19.6-6.8c-4.8-4.5-8.2-11.6-10.2-21.2
			c-7.1,9.8-14.8,17-23.2,21.4c-8.4,4.4-18.3,6.6-29.9,6.6C-426.5-15440.2-433.7-15441.5-440-15444.3z M-369.8-15466.1
			c3.1-3.9,4.7-9.3,4.7-16.2v-45.7c-9,3-16.1,6.1-21.1,9.4c-5,3.3-8.6,7.4-10.6,12.2c-2.1,4.8-3.1,11.1-3.1,18.7
			c0,8.9,1.5,15.6,4.4,20.4c3,4.7,7.2,7.1,12.7,7.1C-377.3-15460.2-373-15462.2-369.8-15466.1z"/>
		<path class="st1" d="M-237.9-15444.4c-11.8-2.8-24.1-6.6-36.9-11.4l-3-58.7h3c6.1,14.2,13.1,26.5,20.9,37.2
			c7.9,10.6,16.1,18.8,24.6,24.6c8.6,5.8,17,8.7,25.2,8.7c6.7,0,12-2,15.9-5.9c3.9-3.9,5.9-9,5.9-15.3c0-4.3-0.9-8.1-2.7-11.2
			c-1.8-3.1-4.7-5.9-8.7-8.4c-4-2.5-9.5-5-16.4-7.5l-14.5-5.3c-12.6-4.5-22.7-9.2-30.4-14c-7.7-4.8-13.3-10.1-16.8-15.8
			c-3.5-5.7-5.3-12.2-5.3-19.5c0-9,2.8-17.3,8.3-24.6c5.5-7.4,13.1-13.2,22.7-17.4c9.6-4.2,20.5-6.3,32.4-6.3
			c7.7,0,15.6,0.7,23.9,2.1c8.3,1.4,17.7,3.5,28.3,6.5l3,48.4h-3c-4.1-10-9.3-19.1-15.5-27.1c-6.2-8.1-12.7-14.4-19.6-19
			c-6.9-4.6-13.4-6.9-19.5-6.9c-3.7,0-7.2,0.9-10.3,2.7c-3.1,1.8-5.7,4.2-7.5,7.2c-1.9,3.1-2.8,6.3-2.8,9.9
			c0,11.8,9.2,20.8,27.7,26.8l20.1,6.5c15.7,5.1,27.1,11.3,34.2,18.4c7.1,7.2,10.6,16,10.6,26.4c0,10.2-2.8,19.4-8.4,27.4
			c-5.6,8.1-13.4,14.4-23.3,19c-9.9,4.6-21.2,6.9-33.8,6.9C-216.6-15440.2-226.1-15441.6-237.9-15444.4z"/>
		<path class="st1" d="M-87.1-15442.7c-5-1.7-9.4-4-13.1-6.9c-4.9-4.1-8.4-9.1-10.3-15c-2-5.9-3-14.2-3-24.8v-88.2h-36.3
			c17.3-7.7,33.9-18.1,49.7-31.3c15.8-13.2,28.8-27.3,38.8-42.5v59.9h37.2l-7.4,13.9h-29.8v85c0,11.2,1.9,19.2,5.8,24
			c3.8,4.8,10.1,7.2,18.7,7.2c2.8,0,5.4-0.2,7.8-0.7c2.5-0.5,5.5-1.3,9-2.5l1.8,2.4c-11,8.1-20.6,13.8-28.6,17.1
			c-8.1,3.3-16.1,5-24.2,5C-76.7-15440.2-82-15441-87.1-15442.7z"/>
		<path class="st1" d="M-15.1-15385.7c-5.2-2.5-9.3-6-12.2-10.5c-3-4.5-4.4-9.6-4.4-15.3c0-4.9,1.1-9.3,3.4-13.1
			c2.3-3.8,5.4-6.9,9.3-9.1c3.9-2.3,8.4-3.4,13.3-3.4c5.1,0,9.4,1,13,3.1c3.5,2.1,7.4,5.8,11.5,11.1c2.9,3.9,5.5,6.6,7.5,8.1
			c2.1,1.5,4.4,2.2,6.9,2.2c2.8,0,5.7-1.1,8.8-3.2c3.1-2.2,5.8-5,8-8.6c1.2-1.8,2.4-3.8,3.7-6.2c1.3-2.4,3.1-5.9,5.5-10.6l-59-119.2
			c-3.3-7.5-6.4-13.1-9.1-16.8c-2.8-3.7-5.7-6.4-8.8-8.1c-3.1-1.7-7.3-2.7-12.4-3.1v-3h96.8v3c-4.5,0.2-7.8,1.3-9.9,3.4
			c-2.1,2.1-3.1,5.2-3.1,9.3c0,2.6,0.6,5.7,1.8,9.4c1.2,3.7,2.8,7.7,4.7,11.8l27.4,55.8c5.9-11.8,10.3-21.2,13.3-28.2
			c3-7,5-13,6-18.1c1.1-5.1,1.6-10.6,1.6-16.5c0-8.1-1.4-14.1-4.1-18.1c-2.8-4-7.5-6.9-14.2-8.7v-3h67v3c-5.1,0.8-10.1,3.2-15,7.2
			c-4.9,4-10.1,10.1-15.6,18.3c-5.5,8.2-11.7,18.8-18.6,32l-52.2,105c-7.5,15.1-15.5,26.3-24,33.3s-18.1,10.6-28.8,10.6
			C-3.9-15382-9.9-15383.3-15.1-15385.7z"/>
	</g>
	<g transform="translate(463 339)">
		<path class="st2" d="M-478.4-16249h-3.1v-82.6h-554.2v82.6h-3.1c-10,0-18,8.1-18,18c0,10,8.1,18,18,18c46.7,0,46.7,22.4,93.4,22.4
			s46.7-22.4,93.4-22.4s46.7,22.4,93.4,22.4h0.2c46.7,0,46.7-22.4,93.4-22.4c46.7,0,46.7,22.4,93.4,22.4s46.7-22.4,93.4-22.4
			c10,0,18-8.1,18-18C-460.4-16240.9-468.5-16249-478.4-16249z"/>
		<path class="st3" d="M-963.4-16249h-75.5c-10,0-18,8.1-18,18c0,10,8.1,18,18,18c46.7,0,46.7,22.4,93.4,22.4s46.7-22.4,93.4-22.4
			s46.7,22.4,93.4,22.4h0.2c46.7,0,46.7-22.4,93.4-22.4c46.7,0,46.7,22.4,93.4,22.4s46.7-22.4,93.4-22.4c10,0,18-8.1,18-18
			c0-10-8.1-18-18-18h-457.9"/>
		<path class="st4" d="M-481-16212.9c-44.1,0.8-45,22.4-90.8,22.4c-46.7,0-46.7-22.4-93.4-22.4c-46.7,0-46.7,22.4-93.4,22.4h-0.2
			c-46.7,0-46.7-22.4-93.4-22.4s-46.7,22.4-93.4,22.4c-45.8,0-46.7-21.6-90.8-22.4c-14,3-23,16.8-20,30.8
			c2.6,12,13.1,20.6,25.4,20.6h544.5c14.4,0,26-11.7,26-26C-460.4-16199.7-469-16210.3-481-16212.9L-481-16212.9z"/>
		<path class="st5" d="M-1035.7-16161.5v29.5h34.3l130,45.5l130-45.5h259.9v-29.5H-1035.7z"/>
		<path class="st2" d="M-871.4-16086.5l-130-45.5h-34.3v82.6h554.2v-82.6h-259.9L-871.4-16086.5z"/>
		<circle class="st3" cx="-758.6" cy="-16429.4" r="31.5"/>
		<path class="st6" d="M-451.3-16231c0-0.7,0-1.5-0.1-2.2c0-0.1,0-0.2,0-0.3c-0.1-0.7-0.2-1.4-0.3-2c0-0.1,0-0.3-0.1-0.4
			c-0.1-0.7-0.3-1.3-0.4-2c0-0.1,0-0.2-0.1-0.3c-0.2-0.6-0.4-1.3-0.6-1.9c0-0.1,0-0.1-0.1-0.2c-0.2-0.6-0.5-1.3-0.8-1.9
			c0-0.1-0.1-0.2-0.2-0.3c-0.3-0.6-0.6-1.2-0.9-1.7l-0.2-0.3c-0.3-0.6-0.7-1.2-1.1-1.7c0,0-0.1-0.1-0.1-0.1
			c-0.4-0.5-0.8-1.1-1.2-1.6c-0.1-0.1-0.1-0.2-0.2-0.2c-0.4-0.5-0.8-1-1.3-1.5c-0.1-0.1-0.2-0.2-0.3-0.3c-0.5-0.5-0.9-0.9-1.4-1.4
			c-0.1-0.1-0.2-0.1-0.2-0.2c-0.5-0.4-1-0.9-1.5-1.3l-0.1-0.1c-0.5-0.4-1.1-0.8-1.7-1.1c-0.1-0.1-0.2-0.1-0.3-0.2
			c-0.6-0.3-1.1-0.7-1.7-1c-0.1-0.1-0.2-0.1-0.3-0.2c-0.6-0.3-1.2-0.6-1.8-0.8l-0.2-0.1c-0.6-0.2-1.2-0.5-1.9-0.7
			c-0.1,0-0.1,0-0.2-0.1c-0.6-0.2-1.3-0.4-2-0.5c-0.1,0-0.1,0-0.2-0.1v-83.3h-277.1v-49.1c21.8-5,35.5-26.8,30.4-48.7
			c-5-21.8-26.8-35.5-48.7-30.4s-35.5,26.8-30.4,48.7c3.5,15.1,15.3,26.9,30.4,30.4v49.1h-277.1v83.3c-0.1,0-0.1,0-0.2,0.1
			c-0.7,0.2-1.3,0.3-2,0.5c-0.1,0-0.2,0.1-0.2,0.1c-0.6,0.2-1.2,0.4-1.8,0.7c-0.1,0-0.1,0.1-0.2,0.1c-0.6,0.3-1.2,0.5-1.8,0.8
			c-0.1,0.1-0.2,0.1-0.3,0.2c-0.6,0.3-1.1,0.6-1.7,1c-0.1,0.1-0.2,0.1-0.3,0.2c-0.6,0.4-1.1,0.7-1.7,1.1c0,0,0,0-0.1,0
			c-0.5,0.4-1,0.8-1.5,1.3c-0.1,0.1-0.2,0.1-0.2,0.2c-0.5,0.4-1,0.9-1.4,1.4c-0.1,0.1-0.2,0.2-0.3,0.3c-0.4,0.5-0.9,1-1.3,1.5
			c-0.1,0.1-0.1,0.1-0.2,0.2c-0.4,0.5-0.8,1-1.2,1.6c0,0-0.1,0.1-0.1,0.1c-0.4,0.6-0.7,1.1-1.1,1.7c-0.1,0.1-0.1,0.2-0.2,0.3
			c-0.3,0.6-0.6,1.2-0.9,1.8c-0.1,0.1-0.1,0.2-0.2,0.3c-0.3,0.6-0.5,1.2-0.8,1.9c0,0.1,0,0.1-0.1,0.2c-0.2,0.6-0.4,1.3-0.6,1.9
			c0,0.1,0,0.2-0.1,0.2c-0.2,0.7-0.3,1.3-0.4,2c0,0.1,0,0.3-0.1,0.4c-0.1,0.7-0.2,1.3-0.3,2c0,0.1,0,0.2,0,0.3
			c0,0.7-0.1,1.5-0.1,2.2c0,7.7,3.3,15,9,20.2c-12.9,14.4-11.8,36.5,2.6,49.4c2.8,2.5,6.1,4.6,9.6,6.1v115.1h572.4v-115.1
			c17.8-7.7,25.9-28.3,18.3-46c-1.5-3.5-3.6-6.7-6.1-9.6C-454.5-16215.9-451.3-16223.3-451.3-16231z M-781-16429.4
			c0-12.3,10-22.3,22.3-22.3c12.3,0,22.3,10,22.3,22.3c0,12.3-10,22.3-22.3,22.3c0,0,0,0,0,0C-771-16407.1-781-16417.1-781-16429.4z
			 M-914.3-16322.5l-29.7,29.7l12.9,12.9l42.6-42.6h78.4l-29.7,29.7l12.9,12.9l42.6-42.6h78.4l-29.7,29.7l12.9,12.9l42.6-42.6h78.4
			l-29.7,29.7l12.9,12.9l42.6-42.6h85.3v64.4h-445.7v18.2h458c4.9,0,8.9,4,8.9,8.9c0,4.9-4,8.9-8.9,8.9c-25.4,0-38.8,6.4-50.6,12.1
			c-11,5.3-21.5,10.3-42.7,10.3c-21.3,0-31.7-5-42.7-10.3c-11.8-5.7-25.2-12.1-50.6-12.1s-38.8,6.4-50.6,12.1
			c-2.8,1.3-5.5,2.6-8.3,3.8c-8.6,3.6-18.4,6.5-34.4,6.5h-0.4c-0.2,0-0.4,0-0.6,0c-15.5-0.1-25.2-2.9-33.7-6.5
			c-2.9-1.2-5.6-2.5-8.3-3.8c-11.8-5.7-25.2-12.1-50.6-12.1s-38.8,6.4-50.6,12.1c-11,5.3-21.5,10.3-42.7,10.3s-31.7-5-42.7-10.3
			c-11.8-5.7-25.2-12.1-50.6-12.1c-4.9,0-8.9-4-8.9-8.9s4-8.9,8.9-8.9c0,0,0,0,0,0h75.5v-18.2h-63.2v-64.4L-914.3-16322.5
			L-914.3-16322.5z M-490.7-16058.4h-535.9v-64.4h23.6l131.5,46l131.5-46h249.2L-490.7-16058.4L-490.7-16058.4z M-743-16141.1
			l-128.4,44.9l-128.4-44.9h-26.7v-11.3h535.9v11.3H-743z M-486.4-16170.6h-544.5c-9.3,0-16.9-7.6-16.9-16.9
			c0-7.6,5.1-14.3,12.5-16.3c18.9,0.5,28.8,5.2,39.2,10.3c11.4,5.5,24.3,11.7,48.1,12.1c0.8,0,1.7,0,2.5,0c3.2,0,6.2-0.1,9-0.3
			c2.8-0.2,5.5-0.5,8-0.8c1.9-0.3,3.7-0.6,5.4-0.9c12.1-2.3,20.5-6.4,28.3-10.1c8.3-4,16.2-7.8,28.6-9.4c4.7-0.6,9.4-0.9,14.1-0.9
			c21.3,0,31.7,5,42.7,10.3c11.8,5.7,25.2,12.1,50.6,12.1h0.2c25.4,0,38.8-6.4,50.6-12.1c11-5.3,21.5-10.3,42.7-10.3
			c21.3,0,31.7,5,42.7,10.3c11.8,5.7,25.2,12.1,50.6,12.1c0.9,0,1.8,0,2.6,0c23.7-0.4,36.6-6.6,48-12.1c10.4-5,20.3-9.7,39.2-10.3
			c9,2.4,14.3,11.7,11.9,20.7C-472.1-16175.7-478.8-16170.6-486.4-16170.6L-486.4-16170.6z"/>
	</g>
</g>
</svg>
